<?xml version="1.0" encoding="UTF-8" standalone="no"?>
<svg
   xmlns:dc="http://purl.org/dc/elements/1.1/"
   xmlns:cc="http://creativecommons.org/ns#"
   xmlns:rdf="http://www.w3.org/1999/02/22-rdf-syntax-ns#"
   xmlns:svg="http://www.w3.org/2000/svg"
   xmlns="http://www.w3.org/2000/svg"
   xmlns:sodipodi="http://sodipodi.sourceforge.net/DTD/sodipodi-0.dtd"
   xmlns:inkscape="http://www.inkscape.org/namespaces/inkscape"
   inkscape:version="1.0 (4035a4fb49, 2020-05-01)"
   height="60"
   width="40"
   sodipodi:docname="delay.svg"
   xml:space="preserve"
   viewBox="0 0 40 60"
   y="0px"
   x="0px"
   id="Capa_1"
   version="1.1"><metadata
   id="metadata43"><rdf:RDF><cc:Work
       rdf:about=""><dc:format>image/svg+xml</dc:format><dc:type
         rdf:resource="http://purl.org/dc/dcmitype/StillImage" /><dc:title></dc:title></cc:Work></rdf:RDF></metadata><defs
   id="defs41" /><sodipodi:namedview
   inkscape:current-layer="Capa_1"
   inkscape:window-maximized="1"
   inkscape:window-y="341"
   inkscape:window-x="-8"
   inkscape:cy="134.09524"
   inkscape:cx="256"
   inkscape:zoom="1.96875"
   showgrid="false"
   id="namedview39"
   inkscape:window-height="1017"
   inkscape:window-width="1920"
   inkscape:pageshadow="2"
   inkscape:pageopacity="0"
   guidetolerance="10"
   gridtolerance="10"
   objecttolerance="10"
   borderopacity="1"
   bordercolor="#666666"
   pagecolor="#ffffff" />
<g
   style="stroke-width:13;fill:#ffffff;fill-opacity:1"
   transform="matrix(0.07692308,0,0,0.07692308,0.30769152,10.307692)"
   id="g6">
	<g
   style="stroke-width:13;fill:#ffffff;fill-opacity:1"
   id="g4">
		<path
   style="stroke-width:13;fill:#ffffff;fill-opacity:1"
   id="path2"
   d="M 336.655,202.803 C 370.601,171.854 416.507,129.997 420.691,30 H 451 V 0 H 61 v 30 h 30.309 c 4.184,99.997 50.09,141.854 84.036,172.803 C 198.116,223.564 211,236.271 211,256 c 0,19.729 -12.884,32.436 -35.655,53.197 C 141.399,340.146 95.493,382.003 91.309,482 H 61 v 30 H 451 V 482 H 420.691 C 416.507,382.003 370.601,340.146 336.655,309.197 313.884,288.436 301,275.729 301,256 c 0,-19.729 12.884,-32.436 35.655,-53.197 z M 241,368.438 c -4.633,0.956 -9.21,2.347 -13.677,4.195 l -91.877,38.019 c 15.004,-38.15 39.17,-60.193 60.111,-79.285 C 218.927,310.06 241,289.935 241,256 Z m 75.443,-37.071 c 20.941,19.092 45.106,41.135 60.111,79.284 L 284.677,372.632 C 280.21,370.784 275.633,369.393 271,368.437 V 256 c 0,33.935 22.073,54.06 45.443,75.367 z M 134.919,100 C 127.666,81.101 122.657,58.282 121.346,30 h 269.307 c -1.311,28.282 -6.319,51.101 -13.573,70 z" />
	</g>
</g>
<g
   id="g8">
</g>
<g
   id="g10">
</g>
<g
   id="g12">
</g>
<g
   id="g14">
</g>
<g
   id="g16">
</g>
<g
   id="g18">
</g>
<g
   id="g20">
</g>
<g
   id="g22">
</g>
<g
   id="g24">
</g>
<g
   id="g26">
</g>
<g
   id="g28">
</g>
<g
   id="g30">
</g>
<g
   id="g32">
</g>
<g
   id="g34">
</g>
<g
   id="g36">
</g>
</svg>
