<?xml version="1.0" encoding="UTF-8" standalone="no"?>
<svg
   xmlns:dc="http://purl.org/dc/elements/1.1/"
   xmlns:cc="http://creativecommons.org/ns#"
   xmlns:rdf="http://www.w3.org/1999/02/22-rdf-syntax-ns#"
   xmlns:svg="http://www.w3.org/2000/svg"
   xmlns="http://www.w3.org/2000/svg"
   xmlns:sodipodi="http://sodipodi.sourceforge.net/DTD/sodipodi-0.dtd"
   xmlns:inkscape="http://www.inkscape.org/namespaces/inkscape"
   inkscape:version="1.0 (4035a4fb49, 2020-05-01)"
   inkscape:export-ydpi="96"
   inkscape:export-xdpi="96"
   inkscape:export-filename="N:\Ablage\Jens\moon.png"
   height="36"
   width="26"
   sodipodi:docname="moon.svg"
   xml:space="preserve"
   viewBox="0 0 26.000001 36.000001"
   y="0px"
   x="0px"
   id="Capa_1"
   version="1.1"><metadata
   id="metadata1691"><rdf:RDF><cc:Work
       rdf:about=""><dc:format>image/svg+xml</dc:format><dc:type
         rdf:resource="http://purl.org/dc/dcmitype/StillImage" /><dc:title></dc:title></cc:Work></rdf:RDF></metadata><defs
   id="defs1689" /><sodipodi:namedview
   inkscape:current-layer="Capa_1"
   inkscape:window-maximized="1"
   inkscape:window-y="-8"
   inkscape:window-x="-8"
   inkscape:cy="101.60788"
   inkscape:cx="191.92599"
   inkscape:zoom="2.2143952"
   showgrid="false"
   id="namedview1687"
   inkscape:window-height="1017"
   inkscape:window-width="1920"
   inkscape:pageshadow="2"
   inkscape:pageopacity="0"
   guidetolerance="10"
   gridtolerance="10"
   objecttolerance="10"
   borderopacity="1"
   bordercolor="#666666"
   pagecolor="#ffffff" />
<g
   style="stroke-width:17.4476"
   transform="matrix(0.0573144,0,0,0.0573144,1.9998848,6.9998705)"
   id="g1654">
	<g
   style="stroke-width:17.4476"
   id="g1652">
		<path
   style="stroke-width:17.4476"
   id="path1650"
   d="m 382.667,248.54 c -2.528,-6.168 -8.48,-9.896 -14.776,-9.904 -0.032,0 -0.064,-0.008 -0.096,-0.008 -0.104,0 -0.192,0.04 -0.296,0.048 -1.232,0.032 -2.464,0.232 -3.688,0.56 -0.456,0.12 -0.888,0.24 -1.328,0.392 -0.224,0.08 -0.456,0.112 -0.688,0.2 -20.072,8.248 -41.392,12.432 -63.384,12.432 -91.976,0 -166.808,-74.832 -166.808,-166.808 0,-21.992 4.176,-43.312 12.432,-63.384 0.12,-0.28 0.16,-0.576 0.256,-0.864 0.12,-0.352 0.224,-0.704 0.32,-1.072 0.36,-1.32 0.584,-2.648 0.6,-3.976 0,-0.056 0.024,-0.112 0.024,-0.176 0,-0.016 -0.008,-0.04 -0.008,-0.056 0,-0.96 -0.112,-1.904 -0.288,-2.832 -0.04,-0.2 -0.072,-0.4 -0.112,-0.6 -0.208,-0.92 -0.472,-1.832 -0.84,-2.696 -0.144,-0.336 -0.344,-0.624 -0.504,-0.944 -1.672,-3.336 -4.44,-6.144 -8.168,-7.672 -4.36,-1.784 -9.024,-1.464 -12.96,0.416 -0.04,0.016 -0.088,0.024 -0.128,0.048 -23.912,9.832 -45.496,24.264 -64.152,42.92 -77.432,77.528 -77.432,203.672 0.008,281.216 38.768,38.72 89.68,58.072 140.6,58.072 50.92,0 101.84,-19.36 140.616,-58.08 18.592,-18.6 33,-40.112 42.832,-63.944 0.048,-0.088 0.064,-0.192 0.104,-0.288 0.456,-0.952 0.824,-1.944 1.088,-2.976 0.016,-0.08 0.048,-0.152 0.072,-0.232 0.76,-3.152 0.6,-6.56 -0.728,-9.792 z m -65.976,54.608 c -65.064,64.968 -170.92,64.968 -235.968,0 -64.976,-65.056 -64.976,-170.912 -0.008,-235.96 6.944,-6.944 14.448,-13.064 22.312,-18.576 -2.256,12.064 -3.424,24.36 -3.424,36.848 0,109.624 89.184,198.808 198.808,198.808 12.48,0 24.784,-1.168 36.848,-3.424 -5.52,7.856 -11.624,15.36 -18.568,22.304 z" />
	</g>
</g>
<g
   style="stroke-width:17.4476"
   transform="matrix(0.0573144,0,0,0.0573144,0.00188533,1.9595935e-4)"
   id="g1656">
</g>
<g
   style="stroke-width:17.4476"
   transform="matrix(0.0573144,0,0,0.0573144,0.00188533,1.9595935e-4)"
   id="g1658">
</g>
<g
   style="stroke-width:17.4476"
   transform="matrix(0.0573144,0,0,0.0573144,0.00188533,1.9595935e-4)"
   id="g1660">
</g>
<g
   style="stroke-width:17.4476"
   transform="matrix(0.0573144,0,0,0.0573144,0.00188533,1.9595935e-4)"
   id="g1662">
</g>
<g
   style="stroke-width:17.4476"
   transform="matrix(0.0573144,0,0,0.0573144,0.00188533,1.9595935e-4)"
   id="g1664">
</g>
<g
   style="stroke-width:17.4476"
   transform="matrix(0.0573144,0,0,0.0573144,0.00188533,1.9595935e-4)"
   id="g1666">
</g>
<g
   style="stroke-width:17.4476"
   transform="matrix(0.0573144,0,0,0.0573144,0.00188533,1.9595935e-4)"
   id="g1668">
</g>
<g
   style="stroke-width:17.4476"
   transform="matrix(0.0573144,0,0,0.0573144,0.00188533,1.9595935e-4)"
   id="g1670">
</g>
<g
   style="stroke-width:17.4476"
   transform="matrix(0.0573144,0,0,0.0573144,0.00188533,1.9595935e-4)"
   id="g1672">
</g>
<g
   style="stroke-width:17.4476"
   transform="matrix(0.0573144,0,0,0.0573144,0.00188533,1.9595935e-4)"
   id="g1674">
</g>
<g
   style="stroke-width:17.4476"
   transform="matrix(0.0573144,0,0,0.0573144,0.00188533,1.9595935e-4)"
   id="g1676">
</g>
<g
   style="stroke-width:17.4476"
   transform="matrix(0.0573144,0,0,0.0573144,0.00188533,1.9595935e-4)"
   id="g1678">
</g>
<g
   style="stroke-width:17.4476"
   transform="matrix(0.0573144,0,0,0.0573144,0.00188533,1.9595935e-4)"
   id="g1680">
</g>
<g
   style="stroke-width:17.4476"
   transform="matrix(0.0573144,0,0,0.0573144,0.00188533,1.9595935e-4)"
   id="g1682">
</g>
<g
   style="stroke-width:17.4476"
   transform="matrix(0.0573144,0,0,0.0573144,0.00188533,1.9595935e-4)"
   id="g1684">
</g>
</svg>
