<?xml version="1.0" encoding="UTF-8" standalone="no"?>
<svg
   xmlns:dc="http://purl.org/dc/elements/1.1/"
   xmlns:cc="http://creativecommons.org/ns#"
   xmlns:rdf="http://www.w3.org/1999/02/22-rdf-syntax-ns#"
   xmlns:svg="http://www.w3.org/2000/svg"
   xmlns="http://www.w3.org/2000/svg"
   xmlns:sodipodi="http://sodipodi.sourceforge.net/DTD/sodipodi-0.dtd"
   xmlns:inkscape="http://www.inkscape.org/namespaces/inkscape"
   inkscape:export-ydpi="96"
   inkscape:export-xdpi="96"
   inkscape:export-filename="N:\Ablage\Jens\sun.png"
   inkscape:version="1.0 (4035a4fb49, 2020-05-01)"
   height="36"
   width="26"
   sodipodi:docname="sun.svg"
   xml:space="preserve"
   viewBox="0 0 26 36"
   y="0px"
   x="0px"
   id="Capa_1"
   version="1.1"><metadata
   id="metadata91"><rdf:RDF><cc:Work
       rdf:about=""><dc:format>image/svg+xml</dc:format><dc:type
         rdf:resource="http://purl.org/dc/dcmitype/StillImage" /><dc:title></dc:title></cc:Work></rdf:RDF></metadata><defs
   id="defs89" /><sodipodi:namedview
   inkscape:current-layer="Capa_1"
   inkscape:window-maximized="1"
   inkscape:window-y="-8"
   inkscape:window-x="-8"
   inkscape:cy="65.505882"
   inkscape:cx="192"
   inkscape:zoom="2.2135417"
   showgrid="false"
   id="namedview87"
   inkscape:window-height="1017"
   inkscape:window-width="1920"
   inkscape:pageshadow="2"
   inkscape:pageopacity="0"
   guidetolerance="10"
   gridtolerance="10"
   objecttolerance="10"
   borderopacity="1"
   bordercolor="#666666"
   pagecolor="#ffffff" />























<g
   style="stroke-width:17.4545"
   transform="matrix(0.05729167,0,0,0.05729167,1.9999994,6.9999994)"
   id="g958"><g
     style="stroke-width:17.4545"
     id="g6">
	<g
   style="stroke-width:17.4545"
   id="g4">
		<path
   style="stroke-width:17.4545"
   d="M 101.488,78.864 78.864,56.24 c -6.24,-6.248 -16.384,-6.248 -22.624,0 -6.248,6.248 -6.248,16.376 0,22.624 l 22.624,22.624 c 3.12,3.128 7.216,4.688 11.312,4.688 4.096,0 8.192,-1.56 11.312,-4.688 6.248,-6.248 6.248,-16.376 0,-22.624 z"
   id="path2" />
	</g>
</g><g
     style="stroke-width:17.4545"
     id="g12">
	<g
   style="stroke-width:17.4545"
   id="g10">
		<path
   style="stroke-width:17.4545"
   d="M 48,176 H 16 c -8.832,0 -16,7.168 -16,16 0,8.832 7.168,16 16,16 h 32 c 8.832,0 16,-7.168 16,-16 0,-8.832 -7.168,-16 -16,-16 z"
   id="path8" />
	</g>
</g><g
     style="stroke-width:17.4545"
     id="g18">
	<g
   style="stroke-width:17.4545"
   id="g16">
		<path
   style="stroke-width:17.4545"
   d="m 101.488,282.512 c -6.24,-6.248 -16.384,-6.248 -22.624,0 L 56.24,305.136 c -6.248,6.248 -6.248,16.376 0,22.624 3.12,3.128 7.216,4.688 11.312,4.688 4.096,0 8.192,-1.56 11.312,-4.688 l 22.624,-22.624 c 6.248,-6.248 6.248,-16.376 0,-22.624 z"
   id="path14" />
	</g>
</g><g
     style="stroke-width:17.4545"
     id="g24">
	<g
   style="stroke-width:17.4545"
   id="g22">
		<path
   style="stroke-width:17.4545"
   d="m 192,320 c -8.832,0 -16,7.168 -16,16 v 32 c 0,8.832 7.168,16 16,16 8.832,0 16,-7.168 16,-16 v -32 c 0,-8.832 -7.168,-16 -16,-16 z"
   id="path20" />
	</g>
</g><g
     style="stroke-width:17.4545"
     id="g30">
	<g
   style="stroke-width:17.4545"
   id="g28">
		<path
   style="stroke-width:17.4545"
   d="m 327.76,305.136 -22.624,-22.624 c -6.24,-6.248 -16.384,-6.248 -22.624,0 -6.248,6.248 -6.248,16.376 0,22.624 l 22.624,22.624 c 3.12,3.128 7.216,4.688 11.312,4.688 4.096,0 8.192,-1.56 11.312,-4.688 6.248,-6.248 6.248,-16.376 0,-22.624 z"
   id="path26" />
	</g>
</g><g
     style="stroke-width:17.4545"
     id="g36">
	<g
   style="stroke-width:17.4545"
   id="g34">
		<path
   style="stroke-width:17.4545"
   d="m 368,176 h -32 c -8.832,0 -16,7.168 -16,16 0,8.832 7.168,16 16,16 h 32 c 8.832,0 16,-7.168 16,-16 0,-8.832 -7.168,-16 -16,-16 z"
   id="path32" />
	</g>
</g><g
     style="stroke-width:17.4545"
     id="g42">
	<g
   style="stroke-width:17.4545"
   id="g40">
		<path
   style="stroke-width:17.4545"
   d="m 327.76,56.24 c -6.24,-6.248 -16.384,-6.248 -22.624,0 l -22.624,22.624 c -6.248,6.248 -6.248,16.376 0,22.624 3.12,3.128 7.216,4.688 11.312,4.688 4.096,0 8.192,-1.56 11.312,-4.688 L 327.76,78.864 c 6.248,-6.248 6.248,-16.376 0,-22.624 z"
   id="path38" />
	</g>
</g><g
     style="stroke-width:17.4545"
     id="g48">
	<g
   style="stroke-width:17.4545"
   id="g46">
		<path
   style="stroke-width:17.4545"
   d="m 192,0 c -8.832,0 -16,7.168 -16,16 v 32 c 0,8.832 7.168,16 16,16 8.832,0 16,-7.168 16,-16 V 16 C 208,7.168 200.832,0 192,0 Z"
   id="path44" />
	</g>
</g><g
     style="stroke-width:17.4545"
     id="g54">
	<g
   style="stroke-width:17.4545"
   id="g52">
		<path
   style="stroke-width:17.4545"
   d="m 192,88 c -57.344,0 -104,46.656 -104,104 0,57.344 46.656,104 104,104 57.344,0 104,-46.656 104,-104 C 296,134.656 249.344,88 192,88 Z m 0,176 c -39.696,0 -72,-32.304 -72,-72 0,-39.696 32.304,-72 72,-72 39.696,0 72,32.304 72,72 0,39.696 -32.304,72 -72,72 z"
   id="path50" />
	</g>
</g><g
     style="stroke-width:17.4545"
     id="g56">
</g><g
     style="stroke-width:17.4545"
     id="g58">
</g><g
     style="stroke-width:17.4545"
     id="g60">
</g><g
     style="stroke-width:17.4545"
     id="g62">
</g><g
     style="stroke-width:17.4545"
     id="g64">
</g><g
     style="stroke-width:17.4545"
     id="g66">
</g><g
     style="stroke-width:17.4545"
     id="g68">
</g><g
     style="stroke-width:17.4545"
     id="g70">
</g><g
     style="stroke-width:17.4545"
     id="g72">
</g><g
     style="stroke-width:17.4545"
     id="g74">
</g><g
     style="stroke-width:17.4545"
     id="g76">
</g><g
     style="stroke-width:17.4545"
     id="g78">
</g><g
     style="stroke-width:17.4545"
     id="g80">
</g><g
     style="stroke-width:17.4545"
     id="g82">
</g><g
     style="stroke-width:17.4545"
     id="g84">
</g></g>
</svg>
